<?xml version="1.0" encoding="UTF-8"?>
<svg id="Ebene_1" data-name="Ebene 1" xmlns="http://www.w3.org/2000/svg" viewBox="0 0 424.83 125.51">
  <defs>
    <style>
      .cls-1 {
        fill: #fff;
      }

      .cls-2 {
        fill: #f09e3b;
      }

      .cls-3 {
        fill: #0000a2;
      }
    </style>
  </defs>
  <g>
    <g id="_Radiale_Wiederholung_" data-name="&amp;lt;Radiale Wiederholung&amp;gt;">
      <path class="cls-1" d="M39.22,125.51c-5.4-9.28-11.04-27.41,2.19-77.56C48.09,22.68,56.48.91,56.84,0l31.31,11.92c-.14.37-8.19,21.28-14.35,44.71-11.06,42.03-5.75,51.87-5.52,52.27l-29.06,16.61ZM88.15,11.92l-15.66-5.96,15.66,5.95s0,0,0,0h0Z"/>
    </g>
    <g id="_Radiale_Wiederholung_-2" data-name="&amp;lt;Radiale Wiederholung&amp;gt;">
      <path class="cls-2" d="M91.44,114.69c-.14-.17-14.43-17.6-31.89-34.68-31.19-30.51-42.45-30.87-42.91-30.87l.02-33.25c10.8,0,29.47,4.23,66.66,40.66,18.74,18.36,33.56,36.45,34.18,37.21l-26.07,20.92Z"/>
    </g>
    <g id="_Radiale_Wiederholung_-3" data-name="&amp;lt;Radiale Wiederholung&amp;gt;">
      <path class="cls-3" d="M5.25,98.96L0,66.12s0,0,0,0H0c.4-.06,22.68-3.61,46.24-10.04,42.26-11.52,48.2-21,48.43-21.4l29.04,16.64c-5.41,9.27-18.43,23.18-68.86,36.89-25.41,6.91-48.63,10.59-49.6,10.74Z"/>
    </g>
  </g>
  <g>
    <path class="cls-3" d="M200.91,58.5h-9.71l-8.62-28.48-8.62,28.48h-9.71l-12.01-39.87h8.33l8.65,30.59,8.99-30.59h8.88l8.99,30.59,8.65-30.59h8.19l-12.01,39.87Z"/>
    <path class="cls-3" d="M225.21,21.88c0,2.68-2.1,4.73-4.8,4.73s-4.77-2.05-4.77-4.73,2.07-4.78,4.77-4.78,4.8,2.11,4.8,4.78ZM224.2,58.5h-7.5v-27.6h7.5v27.6Z"/>
    <path class="cls-3" d="M257.24,40.93v17.57h-7.5v-15.18c0-3.99-2.01-6.18-5.43-6.18-3.22,0-5.89,2.08-5.89,6.24v15.12h-7.5v-27.6h7.3v3.25c1.98-2.93,5.03-3.99,8.19-3.99,6.32,0,10.83,4.36,10.83,10.76Z"/>
    <path class="cls-3" d="M283.68,33.78v-16.29h7.47v41.01h-7.33v-3.05c-1.81,2.22-4.51,3.76-8.33,3.76-7.67,0-13.47-6.24-13.47-14.52s5.8-14.52,13.47-14.52c3.73,0,6.38,1.45,8.19,3.62ZM269.69,44.69c0,4.21,2.79,7.6,7.18,7.6s7.18-3.25,7.18-7.6-2.9-7.6-7.18-7.6-7.18,3.39-7.18,7.6Z"/>
    <path class="cls-3" d="M161.55,92.52h2.64l7.84-9.83h9.19l-10.97,12.99,11.06,14.61h-9.22l-8.02-11.16h-2.53v11.16h-7.5v-41.01h7.5v23.24Z"/>
    <path class="cls-3" d="M210.49,98.53c0,8.71-6.21,12.47-13.16,12.47s-13.19-3.76-13.19-12.47v-15.83h7.5v15.18c0,4.41,2.44,6.21,5.69,6.21s5.69-1.79,5.69-6.21v-15.18h7.47v15.83Z"/>
    <path class="cls-3" d="M224.49,110.29h-7.5v-41.01h7.5v41.01Z"/>
    <path class="cls-3" d="M251.41,89.3h-10.08v10.08c0,3.45,1.84,4.7,4.17,4.7,1.78,0,3.71-.88,5.23-1.79l2.76,5.81c-2.44,1.65-5.26,2.9-9.22,2.9-6.89,0-10.43-3.87-10.43-11.02v-10.68h-5.37v-6.61h5.37v-8.2h7.5v8.2h10.08v6.61Z"/>
    <path class="cls-3" d="M282.73,98.53c0,8.71-6.21,12.47-13.16,12.47s-13.19-3.76-13.19-12.47v-15.83h7.5v15.18c0,4.41,2.44,6.21,5.69,6.21s5.69-1.79,5.69-6.21v-15.18h7.47v15.83Z"/>
    <path class="cls-3" d="M308.25,82.55l-1.12,7.38c-1.24-.54-3.02-.88-4.54-.88-3.48,0-5.86,2.11-5.86,6.21v15.04h-7.5v-27.6h7.27v3.02c1.75-2.59,4.42-3.76,7.84-3.76,1.61,0,2.87.23,3.91.6Z"/>
    <path class="cls-3" d="M337.16,96.45c0,.86-.06,1.88-.14,2.51h-19.74c.8,3.99,3.62,5.72,7.15,5.72,2.41,0,5.03-.97,7.04-2.65l4.4,4.78c-3.16,2.88-7.18,4.19-11.87,4.19-8.53,0-14.45-5.75-14.45-14.44s5.75-14.61,14.08-14.61,13.5,5.9,13.53,14.49ZM317.31,93.89h12.33c-.69-3.53-2.84-5.52-6.06-5.52-3.53,0-5.6,2.11-6.26,5.52Z"/>
    <path class="cls-3" d="M361.16,82.55l-1.12,7.38c-1.24-.54-3.02-.88-4.54-.88-3.48,0-5.86,2.11-5.86,6.21v15.04h-7.5v-27.6h7.27v3.02c1.75-2.59,4.42-3.76,7.84-3.76,1.61,0,2.87.23,3.91.6Z"/>
    <path class="cls-3" d="M394.26,96.48c0,8.29-5.8,14.52-13.47,14.52-3.85,0-6.52-1.54-8.33-3.76v3.05h-7.33v-41.01h7.47v16.29c1.81-2.16,4.42-3.62,8.16-3.62,7.7,0,13.5,6.24,13.5,14.52ZM372.22,96.48c0,4.36,2.9,7.6,7.15,7.6s7.18-3.39,7.18-7.6-2.76-7.6-7.18-7.6-7.15,3.25-7.15,7.6Z"/>
    <path class="cls-3" d="M425.12,96.45c0,.86-.06,1.88-.14,2.51h-19.74c.8,3.99,3.62,5.72,7.15,5.72,2.41,0,5.03-.97,7.04-2.65l4.4,4.78c-3.16,2.88-7.18,4.19-11.87,4.19-8.53,0-14.45-5.75-14.45-14.44s5.75-14.61,14.08-14.61,13.5,5.9,13.53,14.49ZM405.27,93.89h12.33c-.69-3.53-2.84-5.52-6.06-5.52-3.53,0-5.6,2.11-6.26,5.52Z"/>
  </g>
</svg>