<svg xmlns="http://www.w3.org/2000/svg" xmlns:xlink="http://www.w3.org/1999/xlink" xmlns:inkscape="http://www.inkscape.org/namespaces/inkscape" version="1.1" width="346.50" height="145.25" viewBox="7.75 8.25 346.50 145.25">
<defs>
<clipPath id="sentry-typography-clip_1">
<path transform="matrix(1,0,0,-1,-12,296.189)" d="M12 135.189H374V296.189H12Z"/>
</clipPath>
<clipPath id="sentry-typography-clip_2">
<path transform="matrix(1,0,0,-1,-12,296.189)" d="M0 0H805.039V408.189H0Z"/>
</clipPath>
<clipPath id="sentry-typography-clip_3">
<path transform="matrix(1,0,0,-1,-12,296.189)" d="M0 0H805.039V408.189H0Z"/>
</clipPath>
<path id="sentry-typography-font_4_41" d="M.2789917-.0087890629C.4099884-.0087890629 .5059967 .07020569 .5059967 .19316101V.19515991C.5059967 .29711915 .44599916 .35108949 .31599427 .401062 .19699097 .447052 .17098999 .47303773 .17098999 .52201846V.52301028C.17098999 .56900027 .20999146 .6039734 .272995 .6039734 .32899476 .6039734 .38198854 .57699587 .42999269 .53800967L.49598695 .62698367C.43199159 .6829834 .35699464 .7089844 .27598573 .7089844 .1459961 .7089844 .053985597 .62797549 .053985597 .51301577V.51101687C.053985597 .3990631 .12298584 .35009767 .2559967 .30010987 .36698915 .25912477 .3899994 .23014832 .3899994 .18615723V.1851654C.3899994 .13319397 .34700013 .096206668 .27999879 .096206668 .20599365 .096206668 .147995 .13218689 .09599304 .1791687L.025985718 .09220886C.101989749 .022201539 .18899536-.0087890629 .2789917-.0087890629Z"/>
<path id="sentry-typography-font_4_5" d="M.07598877 0H.5219879V.10499573H.19099427V.30026246H.47999574V.40527345H.19099427V.5951843H.5169983V.7001953H.07598877V0Z"/>
<path id="sentry-typography-font_4_14" d="M.07598877 0H.18998719V.48112489L.5069885 0H.6049957V.7001953H.49198915V.23306275L.18399048 .7001953H.07598877V0Z"/>
<path id="sentry-typography-font_4_42" d="M.21598816 0H.33198548V.5921936H.5159912V.7001953H.03199768V.5921936H.21598816V0Z"/>
<path id="sentry-typography-font_4_40" d="M.07598877 0H.19198609V.24707031H.3039856C.30599977 .24707031 .30899049 .24707031 .31098939 .24806214L.45999146 0H.59399417L.42900086 .27105714C.5139923 .3010559 .57398989 .3680725 .57398989 .47612V.48013307C.57398989 .54415896 .5529938 .5971832 .5159912 .6341858 .47399903 .67619326 .40899659 .7001953 .32899476 .7001953H.07598877V0M.19198609 .35105897V.5941925H.31900025C.4059906 .5941925 .45700074 .5531616 .45700074 .4741211V.4721222C.45700074 .39909364 .40699769 .35105897 .31698609 .35105897H.19198609Z"/>
<path id="sentry-typography-font_4_47" d="M.24899292 0H.36499024V.28007508L.59999087 .7001953H.47099305L.30799867 .39711 .1459961 .7001953H.0129852299L.24899292 .279068V0Z"/>
<path id="sentry-typography-font_4_16" d="M.07598877 0H.19198609V.22702027H.29299928C.43798829 .22901917 .5519867 .31002809 .5519867 .46510316V.46710206C.5519867 .6121826 .45298768 .7001953 .2999878 .7001953H.07598877V0M.19198609 .33203126V.5941925H.29299928C.38198854 .5941925 .43399049 .54815676 .43399049 .46411134V.46310426C.43399049 .38505555 .38198854 .33203126 .29299928 .33203126H.19198609Z"/>
<path id="sentry-typography-font_4_15" d="M.35899354-.0107421879C.5419922-.0107421879 .66999819 .13822937 .66999819 .3460846V.3560791C.66999819 .56295779 .54299929 .7109375 .36099244 .7109375 .17799378 .7109375 .049987794 .5619507 .049987794 .3540802V.3440857C.049987794 .13722229 .1769867-.0107421879 .35899354-.0107421879M.36099244 .09625244C.25099183 .09625244 .16999817 .19718933 .16999817 .34709168V.3540802C.16999817 .5049896 .24899292 .6039276 .35899354 .6039276 .46998597 .6039276 .5499878 .5029907 .5499878 .35308839V.3460846C.5499878 .19519043 .47099305 .09625244 .36099244 .09625244Z"/>
<path id="sentry-typography-font_4_7" d="M.36999513-.009765625C.46899415-.009765625 .5499878 .02822876 .60899356 .07522583V.38909913H.35198976V.28710938H.49899293V.13320923C.46798707 .11122131 .42399598 .096221927 .375 .096221927 .2559967 .096221927 .16999817 .19017029 .16999817 .34809876V.35409547C.16999817 .49902345 .25498963 .6019592 .36898805 .6019592 .43998719 .6019592 .48399354 .57496646 .5239868 .53900149L.59298709 .6309509C.5309906 .6829529 .46598817 .70996096 .37098695 .70996096 .18299866 .70996096 .049987794 .5589905 .049987794 .35310365V.34510804C.049987794 .13020325 .17999268-.009765625 .36999513-.009765625Z"/>
<path id="sentry-typography-font_4_1" d="M.023986817 0H.14099121L.19898987 .16503906H.47099305L.5289917 0H.6499939L.3929901 .70410159H.2809906L.023986817 0M.23498535 .2680359 .33499146 .54907229 .43499757 .2680359H.23498535Z"/>
<path id="sentry-typography-font_4_8" d="M.07598877 0H.19198609V.2982483H.46699525V0H.58299258V.7001953H.46699525V.40625H.19198609V.7001953H.07598877V0Z"/>
<clipPath id="sentry-typography-clip_5">
<path transform="matrix(1,0,0,-1,-12,296.189)" d="M0 0H805.039V408.189H0Z"/>
</clipPath>
<path id="sentry-typography-font_6_7" d="M.36898805-.009765625C.47299195-.009765625 .55400088 .029220581 .6179962 .07722473V.4013672H.35299684V.2753601H.47999574V.15124512C.45399476 .13223267 .4169922 .1222229 .37599183 .1222229 .272995 .1222229 .19400025 .20329285 .19400025 .34736634V.35536195C.19400025 .48416139 .269989 .5749512 .36999513 .5749512 .43699647 .5749512 .47799684 .54901126 .5149994 .51509097L.6009979 .6279602C.5369873 .6819458 .46998597 .70996096 .37199403 .70996096 .18199158 .70996096 .04499817 .5609894 .04499817 .35435487V.34535218C.04499817 .12623596 .18099976-.009765625 .36898805-.009765625Z"/>
<path id="sentry-typography-font_6_15" d="M.36099244-.01171875C.54599-.01171875 .6779938 .13626099 .6779938 .34509278V.35708619C.6779938 .56591799 .5479889 .71191409 .3619995 .71191409 .1769867 .71191409 .04499817 .5649109 .04499817 .35508729V.34309388C.04499817 .13426209 .1749878-.01171875 .36099244-.01171875M.3619995 .12226868C.2649994 .12226868 .19400025 .209198 .19400025 .34709168V.3540802C.19400025 .49197389 .2630005 .5779114 .36099244 .5779114 .45799256 .5779114 .5279999 .49098207 .5279999 .35308839V.34609986C.5279999 .20820618 .45899964 .12226868 .3619995 .12226868Z"/>
<path id="sentry-typography-font_6_37" d="M.20399475 0H.34799195V.5661926H.5239868V.7001953H.027999878V.5661926H.20399475V0Z"/>
<path id="sentry-typography-font_6_8" d="M.069992069 0H.21499634V.28515626H.44499208V0H.58999636V.7001953H.44499208V.41914369H.21499634V.7001953H.069992069V0Z"/>
<path id="sentry-typography-font_6_1" d="M.016998291 0H.16299439L.21398926 .15226746H.45498658L.5069885 0H.6569977L.4059906 .70410159H.2679901L.016998291 0M.2579956 .28027345 .33499146 .5081787 .41099549 .28027345H.2579956Z"/>
<path id="sentry-typography-font_6_13" d="M.069992069 0H.21099854V.44511415L.375 .15803528H.37799073L.54299929 .44711305V0H.68499758V.7001953H.5319977L.37799073 .41610719 .22200012 .7001953H.069992069V0Z"/>
<path id="sentry-typography-font_6_17" d="M0 0Z"/>
<path id="sentry-typography-font_6_14" d="M.069992069 0H.21199036V.42311097L.4889984 0H.61299136V.7001953H.47099305V.29206849L.20298767 .7001953H.069992069V0Z"/>
<path id="sentry-typography-font_6_35" d="M.069992069 0H.21499634V.23039246H.30599977L.43499757 0H.6009979L.45199586 .26039125C.5289917 .29438783 .58200076 .36138917 .58200076 .46728517V.47128297C.58200076 .54022219 .5609894 .5951843 .522995 .63319399 .47898866 .67718508 .4139862 .7001953 .33299256 .7001953H.069992069V0M.21499634 .35839845V.56918337H.31900025C.3929901 .56918337 .43598939 .53422549 .43598939 .46429444V.46328736C.43598939 .40034486 .3959961 .35839845 .32199098 .35839845H.21499634Z"/>
<path id="sentry-typography-font_6_39" d="M.22200012-.00390625H.35398866L.48199464 .44111634 .6100006-.00390625H.7429962L.94299319 .7001953H.79299929L.6759949 .23912049 .5469971 .70214846H.42099L.29299928 .23910523 .1749878 .7001953H.021987915L.22200012-.00390625Z"/>
<path id="sentry-typography-font_4_28" d="M.1519928 0H.2669983V.7050781H.18499756L.022994996 .651062 .041992189 .5510559 .1519928 .58406069V0Z"/>
<path id="sentry-typography-font_4_33" d="M.2939911-.0107421879C.4249878-.0107421879 .5269928 .086257938 .5269928 .22724915V.22924805C.5269928 .3732605 .42799378 .44726563 .31399537 .44726563 .25 .44726563 .20298767 .42225648 .16699219 .383255 .16999817 .5011444 .21598816 .6049347 .31698609 .6049347 .36799623 .6049347 .40699769 .5829773 .44198609 .55503848L.49899293 .6469269C.44599916 .68792727 .3919983 .7109375 .31999208 .7109375 .14698792 .7109375 .04899597 .5660095 .04899597 .33026124V.32325746C.04899597 .1772461 .07998657 .103256229 .12998963 .052246095 .16999817 .012252808 .22399903-.0107421879 .2939911-.0107421879M.29299928 .09124756C.21798706 .09124756 .16999817 .14524842 .16999817 .22125244V.22325135C.16999817 .29725648 .21798706 .34925843 .29100038 .34925843 .3639984 .34925843 .4119873 .29925538 .4119873 .22325135V.22125244C.4119873 .1462555 .36698915 .09124756 .29299928 .09124756Z"/>
<path id="sentry-typography-font_4_34" d="M.08999634 0H.21598816L.4850006 .6131897V.7001953H.053985597V.5941925H.35899354L.08999634 0Z"/>
<path id="sentry-typography-font_4_18" d="M0 0Z"/>
<path id="sentry-typography-font_4_2" d="M.07598877 0H.33299256C.48199464 0 .58200076 .067993167 .58200076 .19114685V.19514466C.58200076 .28930665 .526001 .3353424 .44898988 .3623352 .5019989 .38833619 .5519867 .4333191 .5519867 .51924136V.5222473C.5519867 .5702057 .5359955 .6091919 .5049896 .6401825 .46598817 .67918398 .4019928 .7001953 .32598878 .7001953H.07598877V0M.43598939 .5012665C.43598939 .4363098 .3869934 .40234376 .31098939 .40234376H.18998719V.5961914H.31799317C.3929901 .5961914 .43598939 .5622101 .43598939 .5032654V.5012665M.46598817 .20516968V.20315552C.46598817 .13905335 .41600038 .10398865 .33599855 .10398865H.18998719V.30433656H.33099366C.4189911 .30433656 .46598817 .26626588 .46598817 .20516968Z"/>
<path id="sentry-typography-font_4_4" d="M.07598877 0H.2899933C.48999024 0 .621994 .14201355 .621994 .34709168V.35508729C.621994 .56018069 .48999024 .7001953 .2899933 .7001953H.07598877V0M.2889862 .5951843C.4169922 .5951843 .5019989 .50315859 .5019989 .35209657V.3460846C.5019989 .19602967 .4169922 .10499573 .2889862 .10499573H.19198609V.5951843H.2889862Z"/>
<clipPath id="sentry-typography-clip_7">
<path transform="matrix(1,0,0,-1,-12,296.189)" d="M0 0H805.039V408.189H0Z"/>
</clipPath>
</defs>
<g clip-path="url(#sentry-typography-clip_1)">
<g clip-path="url(#sentry-typography-clip_2)">
<g clip-path="url(#sentry-typography-clip_3)">


</g>






<use data-text="T" xlink:href="#sentry-typography-font_4_42" transform="matrix(12,0,0,-12,103.5065,-82.55762)" fill="#424546"/>
<use data-text="Y" xlink:href="#sentry-typography-font_4_47" transform="matrix(12,0,0,-12,110.058498,-82.55762)" fill="#424546"/>
<use data-text="P" xlink:href="#sentry-typography-font_4_16" transform="matrix(12,0,0,-12,117.41449,-82.55762)" fill="#424546"/>
<use data-text="O" xlink:href="#sentry-typography-font_4_15" transform="matrix(12,0,0,-12,124.39848,-82.55762)" fill="#424546"/>
<use data-text="G" xlink:href="#sentry-typography-font_4_7" transform="matrix(12,0,0,-12,133.03849,-82.55762)" fill="#424546"/>
<use data-text="R" xlink:href="#sentry-typography-font_4_40" transform="matrix(12,0,0,-12,141.07848,-82.55762)" fill="#424546"/>
<use data-text="A" xlink:href="#sentry-typography-font_4_1" transform="matrix(12,0,0,-12,148.55449,-82.55762)" fill="#424546"/>
<use data-text="P" xlink:href="#sentry-typography-font_4_16" transform="matrix(12,0,0,-12,156.64249,-82.55762)" fill="#424546"/>
<use data-text="H" xlink:href="#sentry-typography-font_4_8" transform="matrix(12,0,0,-12,163.62648,-82.55762)" fill="#424546"/>
<use data-text="Y" xlink:href="#sentry-typography-font_4_47" transform="matrix(12,0,0,-12,171.52248,-82.55762)" fill="#424546"/>
<g clip-path="url(#sentry-typography-clip_5)">
<path transform="matrix(1,0,0,-1,7.8425009,65.432498)" d="M0 0H14.8L18 10.08H35.6L38.88 0H54L34.24 56.32H19.68ZM21.6 21.6 26.8 38 32 21.6ZM58.399 0H81.679C94.879 0 102.399 5.92 102.399 15.52V15.84C102.399 23.2 98.159 26.88 92.159 29.12 96.799 31.2 100.479 35.04 100.479 41.44V41.76C100.479 45.76 99.119 48.8 96.799 51.04 93.519 54.4 88.319 56 81.599 56H58.399ZM86.239 38.72C86.239 35.28 83.679 33.52 79.279 33.52H72.399V44H79.519C83.839 44 86.239 42.16 86.239 38.8ZM87.999 17.52V17.44C87.999 14 85.359 12 80.879 12H72.399V22.96H80.799C85.519 22.96 87.999 20.8 87.999 17.52M132.159-.96C141.519-.96 147.759 3.04 152.319 8.64L143.199 17.92C140.639 14.96 137.759 12.4 132.959 12.4 126.479 12.4 121.519 17.92 121.519 27.92V28.24C121.519 37.76 126.399 43.6 132.959 43.6 137.359 43.6 140.399 41.2 142.799 38.32L152.079 48.16C147.519 53.52 141.519 56.96 132.719 56.96 117.999 56.96 106.719 45.68 106.719 28.4V27.44C106.719 10 117.839-.96 132.159-.96M157.678 0H175.838C193.998 0 204.318 11.2 204.318 27.68V28.64C204.318 45.12 194.078 56 176.078 56H157.678ZM176.238 43.12C184.238 43.12 189.598 38.4 189.598 28.32V27.6C189.598 17.6 184.238 12.88 176.238 12.88H172.078V43.12ZM211.037 0H249.917V12.64H225.277V22.24H247.197V34.16H225.277V43.36H249.597V56H211.037ZM256.637 0H271.037V20.72H292.317V33.12H271.037V43.04H294.717V56H256.637ZM325.757-.96C334.237-.96 341.037 2.08 346.317 6V32.72H323.917V21.6H332.797V13.28C331.197 12.24 329.117 11.6 326.317 11.6 319.117 11.6 313.597 17.28 313.597 27.52V28.32C313.597 37.6 319.037 43.84 326.157 43.84 330.957 43.84 334.157 41.84 337.117 39.2L345.117 50.16C339.677 54.56 333.837 56.96 325.837 56.96 310.397 56.96 298.877 45.28 298.877 28.48V27.36C298.877 9.84 310.477-.96 325.757-.96" fill="#424546"/>
<path transform="matrix(1,0,0,-1,8.372499,114.18869)" d="M0 0H7.3L9.85 7.6H21.9L24.5 0H32L19.45 35.2H12.55ZM12.05 14 15.9 25.4 19.7 14ZM36.35 0H49.7C57.3 0 62.35 3.3 62.35 9.6V9.85C62.35 14.45 59.85 16.75 56.1 18.2 58.6 19.55 60.85 21.75 60.85 25.85V26C60.85 28.45 60.05 30.35 58.5 31.95 56.5 33.95 53.25 35 49.35 35H36.35ZM53.7 24.65C53.7 22 51.65 20.7 48.45 20.7H43.4V28.6H48.8C51.9 28.6 53.7 27.25 53.7 24.7ZM55.2 10.55V10.5C55.2 7.8 53.15 6.4 49.9 6.4H43.4V14.6H49.75C53.35 14.6 55.2 13.05 55.2 10.55M81.75-.5C87.1-.5 90.45 1.5 93.6 4.75L89.25 9.9C86.9 7.55 84.85 6.25 82.05 6.25 77.4 6.25 73.8 10.5 73.8 17.45V17.6C73.8 24.4 77.25 28.75 81.95 28.75 84.8 28.75 87 27.4 89.1 25.25L93.45 30.85C90.75 33.6 87.4 35.5 82.2 35.5 72.95 35.5 66.35 28.3 66.35 17.7V17.25C66.35 6.55 72.55-.5 81.75-.5M98.549 0H109.849C119.999 0 126.549 7.05 126.549 17.3V17.75C126.549 28 119.999 35 109.849 35H98.549ZM109.799 28.45C115.299 28.45 119.049 24.55 119.049 17.6V17.35C119.049 10.4 115.299 6.55 109.799 6.55H105.799V28.45ZM132.249 0H154.999V6.55H139.449V14.35H152.949V20.9H139.449V28.45H154.799V35H132.249ZM160.698 0H167.948V13.85H181.398V20.5H167.948V28.35H183.248V35H160.698ZM203.198-.5C208.398-.5 212.448 1.45 215.648 3.85V20.05H202.398V13.75H208.748V7.55C207.448 6.6 205.598 6.1 203.548 6.1 198.398 6.1 194.448 10.15 194.448 17.35V17.75C194.448 24.2 198.248 28.75 203.248 28.75 206.598 28.75 208.648 27.45 210.498 25.75L214.798 31.4C211.598 34.1 208.248 35.5 203.348 35.5 193.848 35.5 186.998 28.05 186.998 17.7V17.25C186.998 6.3 193.798-.5 203.198-.5" fill="#424546"/>
<path transform="matrix(1,0,0,-1,8.272499,153.0472)" d="M0 0H3.656L5.469 5.156H13.969L15.781 0H19.562L11.531 22H8.031ZM6.594 8.375 9.719 17.156 12.844 8.375ZM22.687 0H30.719C35.375 0 38.5 2.125 38.5 5.969V6.094C38.5 9.031 36.75 10.469 34.344 11.313 36 12.125 37.562 13.531 37.562 16.219V16.312C37.562 17.812 37.062 19.031 36.094 20 34.875 21.219 32.875 21.875 30.5 21.875H22.687ZM33.937 15.656C33.937 13.625 32.406 12.563 30.031 12.563H26.25V18.625H30.25C32.594 18.625 33.937 17.562 33.937 15.719ZM34.875 6.406V6.344C34.875 4.344 33.312 3.25 30.812 3.25H26.25V9.5H30.656C33.406 9.5 34.875 8.313 34.875 6.406M50.906-.312C53.937-.312 56.156 .812 58.062 2.781L55.937 5.344C54.562 4.031 53.187 3.063 51.093 3.063 47.656 3.063 45.062 6.156 45.062 10.906V11.031C45.062 15.688 47.656 18.812 51.093 18.812 53.062 18.812 54.5 17.875 55.781 16.687L57.968 19.469C56.187 21.094 54.156 22.187 51.093 22.187 45.437 22.187 41.312 17.656 41.312 11.031V10.813C41.312 4.125 45.312-.312 50.906-.312M61.406 0H68.093C74.343 0 78.468 4.437 78.468 10.844V11.094C78.468 17.5 74.343 21.875 68.093 21.875H61.406ZM68.062 18.594C72.062 18.594 74.718 15.719 74.718 11V10.813C74.718 6.125 72.062 3.281 68.062 3.281H65.031V18.594ZM82.405 0H96.343V3.281H85.999V9.375H95.03V12.656H85.999V18.594H96.187V21.875H82.405ZM100.155 0H103.78V9.063H112.718V12.375H103.78V18.531H113.874V21.875H100.155ZM126.374-.312C129.468-.312 131.999 .875 133.843 2.344V12.156H125.811V8.969H130.405V4.156C129.436 3.469 128.061 3 126.53 3 122.811 3 120.124 5.937 120.124 10.875V11.063C120.124 15.594 122.78 18.812 126.343 18.812 128.561 18.812 129.936 17.969 131.186 16.844L133.343 19.719C131.405 21.344 129.374 22.187 126.405 22.187 120.53 22.187 116.374 17.469 116.374 11.031V10.781C116.374 4.062 120.436-.312 126.374-.312" fill="#424546"/>
</g>
<use data-text="G" xlink:href="#sentry-typography-font_6_7" transform="matrix(6,0,0,-6,7.8425009,268.674)" fill="#424546"/>
<use data-text="O" xlink:href="#sentry-typography-font_6_15" transform="matrix(6,0,0,-6,11.8745,268.674)" fill="#424546"/>
<use data-text="T" xlink:href="#sentry-typography-font_6_37" transform="matrix(6,0,0,-6,16.0505,268.674)" fill="#424546"/>
<use data-text="H" xlink:href="#sentry-typography-font_6_8" transform="matrix(6,0,0,-6,19.362502,268.674)" fill="#424546"/>
<use data-text="A" xlink:href="#sentry-typography-font_6_1" transform="matrix(6,0,0,-6,23.322503,268.674)" fill="#424546"/>
<use data-text="M" xlink:href="#sentry-typography-font_6_13" transform="matrix(6,0,0,-6,27.3665,268.674)" fill="#424546"/>
<use data-text=" " xlink:href="#sentry-typography-font_6_17" transform="matrix(6,0,0,-6,31.8965,268.674)" fill="#424546"/>
<use data-text="N" xlink:href="#sentry-typography-font_6_14" transform="matrix(6,0,0,-6,33.2405,268.674)" fill="#424546"/>
<use data-text="A" xlink:href="#sentry-typography-font_6_1" transform="matrix(6,0,0,-6,37.3385,268.674)" fill="#424546"/>
<use data-text="R" xlink:href="#sentry-typography-font_6_35" transform="matrix(6,0,0,-6,41.3825,268.674)" fill="#424546"/>
<use data-text="R" xlink:href="#sentry-typography-font_6_35" transform="matrix(6,0,0,-6,45.1445,268.674)" fill="#424546"/>
<use data-text="O" xlink:href="#sentry-typography-font_6_15" transform="matrix(6,0,0,-6,48.9065,268.674)" fill="#424546"/>
<use data-text="W" xlink:href="#sentry-typography-font_6_39" transform="matrix(6,0,0,-6,53.0579,268.674)" fill="#424546"/>
<use data-text="1" xlink:href="#sentry-typography-font_4_28" transform="matrix(12,0,0,-12,755.209,-82.55762)" fill="#424546"/>
<use data-text="6" xlink:href="#sentry-typography-font_4_33" transform="matrix(12,0,0,-12,759.397,-82.55762)" fill="#424546"/>
<use data-text="6" xlink:href="#sentry-typography-font_4_33" transform="matrix(12,0,0,-12,766.297,-82.55762)" fill="#424546"/>
<use data-text="1" xlink:href="#sentry-typography-font_4_28" transform="matrix(12,0,0,-12,755.977,-68.15762)" fill="#424546"/>
<use data-text="6" xlink:href="#sentry-typography-font_4_33" transform="matrix(12,0,0,-12,760.165,-68.15762)" fill="#424546"/>
<use data-text="7" xlink:href="#sentry-typography-font_4_34" transform="matrix(12,0,0,-12,766.86099,-68.15762)" fill="#424546"/>
<use data-text="T" xlink:href="#sentry-typography-font_4_42" transform="matrix(12,0,0,-12,596.029,-82.55762)" fill="#424546"/>
<use data-text="H" xlink:href="#sentry-typography-font_4_8" transform="matrix(12,0,0,-12,602.617,-82.55762)" fill="#424546"/>
<use data-text="E" xlink:href="#sentry-typography-font_4_5" transform="matrix(12,0,0,-12,610.513,-82.55762)" fill="#424546"/>
<use data-text=" " xlink:href="#sentry-typography-font_4_18" transform="matrix(12,0,0,-12,617.329,-82.55762)" fill="#424546"/>
<use data-text="B" xlink:href="#sentry-typography-font_4_2" transform="matrix(12,0,0,-12,620.425,-82.55762)" fill="#424546"/>
<use data-text="R" xlink:href="#sentry-typography-font_4_40" transform="matrix(12,0,0,-12,627.889,-82.55762)" fill="#424546"/>
<use data-text="A" xlink:href="#sentry-typography-font_4_1" transform="matrix(12,0,0,-12,635.3649,-82.55762)" fill="#424546"/>
<use data-text="N" xlink:href="#sentry-typography-font_4_14" transform="matrix(12,0,0,-12,643.45297,-82.55762)" fill="#424546"/>
<use data-text="D" xlink:href="#sentry-typography-font_4_4" transform="matrix(12,0,0,-12,651.62496,-82.55762)" fill="#424546"/>
<g clip-path="url(#sentry-typography-clip_7)">
<path transform="matrix(1,0,0,-1,690.3457,276.15119)" d="M0 0H1.504L2.832 3.594H8.984L10.313 0H11.875L6.66 13.75H5.215ZM3.32 4.922 5.918 11.855 8.496 4.922ZM14.16 0H18.887C21.758 0 23.652 1.367 23.652 3.691V3.75C23.652 5.605 22.422 6.562 20.82 7.031 21.953 7.48 23.066 8.398 23.066 10.215V10.254C23.066 11.172 22.734 11.934 22.168 12.5 21.406 13.262 20.234 13.672 18.789 13.672H14.16ZM21.582 10.02C21.582 8.438 20.391 7.539 18.574 7.539H15.625V12.344H18.711C20.527 12.344 21.582 11.465 21.582 10.059ZM22.168 3.828V3.789C22.168 2.227 20.918 1.328 18.945 1.328H15.625V6.25H18.769C20.976 6.25 22.168 5.352 22.168 3.828M31.601-.195C33.476-.195 34.785 .547 35.937 1.68L35.058 2.695C34.082 1.758 33.086 1.172 31.68 1.172 29.16 1.172 27.226 3.457 27.226 6.816V6.895C27.226 10.195 29.16 12.5 31.68 12.5 33.066 12.5 34.101 11.895 34.961 11.074L35.859 12.188C34.785 13.184 33.574 13.867 31.699 13.867 28.281 13.867 25.703 11.016 25.703 6.875V6.758C25.703 2.598 28.222-.195 31.601-.195M38.242 0H42.109C45.918 0 48.535 2.773 48.535 6.777V6.914C48.535 10.938 45.918 13.672 42.109 13.672H38.242ZM42.07 12.324C45.058 12.324 47.011 10.137 47.011 6.895V6.758C47.011 3.516 45.058 1.348 42.07 1.348H39.707V12.324ZM51.289 0H59.726V1.348H52.754V6.23H58.925V7.559H52.754V12.324H59.629V13.672H51.289ZM62.343 0H63.808V6.016H69.882V7.363H63.808V12.324H70.605V13.672H62.343ZM78.437-.195C80.253-.195 81.796 .547 82.851 1.406V7.266H78.027V5.957H81.445V2.109C80.742 1.562 79.667 1.133 78.496 1.133 75.683 1.133 73.828 3.359 73.828 6.797V6.895C73.828 10.156 75.761 12.5 78.359 12.5 79.843 12.5 80.82 11.973 81.66 11.23L82.539 12.402C81.367 13.359 80.175 13.867 78.398 13.867 74.804 13.867 72.304 10.859 72.304 6.895V6.758C72.304 2.637 74.707-.195 78.437-.195" fill="#424546"/>
<path transform="matrix(1,0,0,-1,721.7469,247.54419)" d="M0 0H.622L1.526 2.393H5.712L6.615 0H7.274L3.942 8.604H3.332ZM1.745 2.94 3.625 7.861 5.492 2.94ZM8.838 0H11.681C13.452 0 14.61 .878 14.61 2.294V2.319C14.61 3.503 13.781 4.113 12.768 4.369 13.501 4.637 14.244 5.223 14.244 6.408V6.432C14.244 6.994 14.049 7.47 13.696 7.825 13.232 8.275 12.512 8.543 11.62 8.543H8.838ZM13.635 6.359C13.635 5.223 12.792 4.588 11.523 4.588H9.447V7.983H11.608C12.89 7.983 13.635 7.348 13.635 6.383ZM14.001 2.319V2.294C14.001 1.207 13.11 .56 11.706 .56H9.447V4.028H11.583C13.146 4.028 14.001 3.405 14.001 2.319M19.664-.122C20.811-.122 21.617 .353 22.312 1.012L21.934 1.439C21.287 .804 20.604 .438 19.688 .438 17.967 .438 16.636 2.013 16.636 4.259V4.308C16.636 6.53 17.967 8.105 19.688 8.105 20.628 8.105 21.299 7.715 21.873 7.165L22.264 7.629C21.604 8.227 20.86 8.665 19.712 8.665 17.613 8.665 16.015 6.872 16.015 4.296V4.235C16.015 1.622 17.588-.122 19.664-.122M23.828 0H26.109C28.466 0 30.1 1.732 30.1 4.235V4.32C30.1 6.823 28.466 8.543 26.109 8.543H23.828ZM26.085 7.983C28.148 7.983 29.492 6.457 29.492 4.308V4.223C29.492 2.062 28.148 .56 26.097 .56H24.436V7.983ZM31.945 0H37.119V.56H32.554V4.028H36.607V4.588H32.554V7.983H37.058V8.543H31.945ZM38.842 0H39.451V3.894H43.43V4.454H39.451V7.983H43.882V8.543H38.842ZM48.778-.122C49.876-.122 50.829 .34 51.45 .853V4.417H48.497V3.857H50.866V1.122C50.377 .743 49.62 .426 48.802 .426 46.861 .426 45.627 1.964 45.627 4.259V4.308C45.627 6.506 46.946 8.105 48.716 8.105 49.681 8.105 50.34 7.776 50.878 7.287L51.255 7.776C50.536 8.361 49.815 8.665 48.729 8.665 46.531 8.665 45.006 6.762 45.006 4.296V4.223C45.006 1.696 46.433-.122 48.778-.122" fill="#424546"/>
<path transform="matrix(1,0,0,-1,743.0619,224.18479)" d="M0 0H.259L.862 1.564H3.577L4.18 0H4.447L2.349 5.378H2.105ZM.953 1.792 2.22 5.043 3.486 1.792ZM5.424 0H7.156C8.316 0 8.979 .541 8.979 1.403V1.419C8.979 2.128 8.461 2.586 7.766 2.723 8.323 2.875 8.758 3.303 8.758 3.99V4.005C8.758 4.371 8.643 4.669 8.415 4.898 8.133 5.18 7.682 5.34 7.102 5.34H5.424ZM8.507 3.974C8.507 3.234 7.942 2.814 7.125 2.814H5.675V5.112H7.095C7.995 5.112 8.507 4.677 8.507 3.99ZM8.728 1.411V1.396C8.728 .663 8.163 .228 7.163 .228H5.675V2.579H7.194C8.133 2.579 8.728 2.144 8.728 1.411M12.107-.069C12.824-.069 13.335 .243 13.732 .64L13.572 .816C13.198 .442 12.74 .159 12.114 .159 11 .159 10.138 1.182 10.138 2.655V2.693C10.138 4.127 11 5.18 12.13 5.18 12.786 5.18 13.198 4.906 13.541 4.577L13.709 4.761C13.32 5.127 12.877 5.408 12.137 5.408 10.856 5.408 9.888 4.28 9.888 2.685V2.647C9.888 1.022 10.825-.069 12.107-.069M14.694 0H16.021C17.532 0 18.538 1.083 18.538 2.647V2.7C18.538 4.265 17.524 5.34 16.029 5.34H14.694ZM16.013 5.112C17.387 5.112 18.28 4.104 18.28 2.693V2.639C18.28 1.228 17.395 .228 16.013 .228H14.945V5.112ZM19.707 0H22.864V.228H19.957V2.579H22.559V2.807H19.957V5.112H22.826V5.34H19.707ZM23.956 0H24.207V2.502H26.763V2.738H24.207V5.112H27.03V5.34H23.956ZM29.99-.076C30.654-.076 31.227 .197 31.623 .533V2.7H29.823V2.464H31.379V.648C31.067 .381 30.563 .152 30.006 .152 28.762 .152 27.93 1.151 27.93 2.654V2.692C27.93 4.104 28.792 5.188 29.96 5.188 30.57 5.188 30.975 4.974 31.334 4.669L31.493 4.867C31.059 5.226 30.632 5.416 29.975 5.416 28.624 5.416 27.679 4.234 27.679 2.685V2.639C27.679 1.014 28.586-.076 29.99-.076" fill="#424546"/>
</g>
</g>
</g>
</svg>
