<svg xmlns="http://www.w3.org/2000/svg" viewBox="56.180 160.954 295.829 86.282" width="295.83" height="86.28">
<path d="M348.402 226.194L348.402 226.194L311.424 189.216L311.422 189.217C309.191 186.986 306.109 185.606 302.705 185.606C299.301 185.606 296.219 186.985 293.989 189.216L265.658 217.547L212.680 164.569L212.678 164.571C210.447 162.336 207.362 160.954 203.955 160.954C200.551 160.954 197.470 162.333 195.239 164.564L142.395 217.408L114.204 189.216L114.202 189.217C111.971 186.986 108.889 185.606 105.484 185.606C102.081 185.606 98.999 186.985 96.768 189.216L59.790 226.194C57.560 228.425 56.180 231.506 56.180 234.910C56.180 241.717 61.699 247.236 68.506 247.236C71.910 247.236 74.991 245.856 77.222 243.626L105.486 215.362L133.750 243.626L133.753 243.623C135.984 245.854 139.065 247.234 142.469 247.234C146.431 247.234 149.954 245.362 152.209 242.457L203.957 190.710L257.152 243.904L257.225 243.830C259.437 245.939 262.429 247.236 265.726 247.236C269.130 247.236 272.212 245.856 274.442 243.626L302.706 215.362L330.970 243.626C333.201 245.854 336.281 247.233 339.683 247.233C346.490 247.233 352.009 241.714 352.009 234.906C352.009 231.504 350.631 228.424 348.402 226.194" fill="#f26522"/>
</svg>
